# xmcd
#
# Track frame offsets:
#	150
#	13968
#	29957
#	46492
#	64280
#	79089
#	94706
#	111612
#	126237
#	140117
#
# Disc length: 2088 seconds
# Revision: 0
# Processed by: cddbd v1.5.2PL0 Copyright (c) Steve Scherf et al.
# Submitted via: dBpowerAMP V12.0
#
DISCID=9d08260a
DTITLE=Eve Selis - 65 Roses
DYEAR=2010
DGENRE=Country
TTITLE0=Sixty-five Roses
TTITLE1=Crazy
TTITLE2=Any Day
TTITLE3=When is Everything Enough
TTITLE4=Out on the Line
TTITLE5=Rubber and Glue
TTITLE6=Just Takes One
TTITLE7=Love Letters
TTITLE8=From Where I Stand
TTITLE9=Stop the Train
EXTD=
EXTT0=
EXTT1=
EXTT2=
EXTT3=
EXTT4=
EXTT5=
EXTT6=
EXTT7=
EXTT8=
EXTT9=
PLAYORDER=
